# xmcd CD database file
#
# Track frame offsets:
#	150
#	14845
#	37467
#	52210
#	65480
#	84930
#	103975
#	119200
#	127725
#	142275
#	159675
#	179657
#	190297
#	204737
#
# Disc length: 2877 seconds
#
# Revision: 0
# Processed by: cddbd v1.5.2PL0 Copyright (c) Steve Scherf et al.
# Submitted via: CDex 1.70beta2
#
DISCID=ea0b3b0e
DTITLE=Acker Bilk - Travelling Blues
DYEAR=1991
DGENRE=Blues
TTITLE0=Travelling Blues
TTITLE1=Ad Lib Blues
TTITLE2=Don't Go Way Nobody
TTITLE3=Dippermouth Blues
TTITLE4=Storyville Blues
TTITLE5=Come On And Stomp,Stomp,Stomp
TTITLE6=Delia Gone
TTITLE7=Indiana
TTITLE8=Lou-Easy-An-I-A
TTITLE9=Hight Society
TTITLE10=Snag It
TTITLE11=Sing On
TTITLE12=Tartan Socks
TTITLE13=Red Wing
EXTD=YEAR: 1991
EXTT0=
EXTT1=
EXTT2=
EXTT3=
EXTT4=
EXTT5=
EXTT6=
EXTT7=
EXTT8=
EXTT9=
EXTT10=
EXTT11=
EXTT12=
EXTT13=
PLAYORDER=
